<svg viewBox="0 0 64 64" xmlns="http://www.w3.org/2000/svg" aria-labelledby="title"
aria-describedby="desc" role="img" xmlns:xlink="http://www.w3.org/1999/xlink">
  <title>Diploma</title>
  <desc>A color styled icon from Orion Icon Library.</desc>
  <path d="M30.998 3.555L35.492 1l3.068 4.164 5.145-.507 1.111 5.049 4.903 1.634-1.039 5.061 3.82 3.487-3.012 4.203 2.071 4.737-4.461 2.614-.032 5.169-5.14.578-2.137 4.707-4.926-1.564-3.865 3.436-3.865-3.436-4.926 1.564-2.137-4.707-5.14-.578-.032-5.169-4.46-2.614 2.07-4.737L9.5 19.888l3.816-3.487-1.039-5.061 4.903-1.634 1.111-5.049 5.147.507L26.504 1l4.494 2.555z"
  fill="#f27e7c" data-name="layer2"></path>
  <circle fill="#ed4f4c" r="12" cy="22" cx="30.998" data-name="layer1"></circle>
  <path d="M22.207 41.896l-2.137-4.707-3.519-.395L9 55.471l8.754-1.086 5.496 6.753 6.43-18.542-2.547-2.264-4.926 1.564zm23.238-5.102l-3.519.395-2.137 4.707-4.926-1.564-2.545 2.262 6.432 18.544 5.496-6.753L53 55.471l-7.555-18.677z"
  fill="#ed4f4c" data-name="layer1"></path>
  <path opacity=".15" fill="#fff" d="M31.411 11.1c-1.062.239-1.251 1.06 1.589 3.9 5.868 5.868 3.588 15.806 6.031 13.27a10.984 10.984 0 0 0-7.62-17.17z"
  data-name="opacity"></path>
  <path opacity=".15" fill="#000064" d="M39 49l3-7 5.248-.75-1.8-4.456-3.52.4 5.141-.578v-.753L47 36h-6l-2 3-8.929-.992L30 38l.071.008C30.8 38.079 37.232 38.42 41 29c-7 3-14 3-17-1s-3-12 0-16c-4 2-9 9-6 19-2.637-1.758-3.729-8.92-5.312-14.024L9.5 19.888l3.008 4.2-2.07 4.736 4.462 2.618.031 5.169 5.141.578-3.519-.4L14.446 42H17l4 5 5-1 2.03 1.353 1.65-4.753L31 43.768l1.32-1.174 1.9 5.476L36 47z"
  data-name="opacity"></path>
  <path d="M16.551 36.794L9 55.471l8.754-1.086 5.496 6.753 6.43-18.543m15.765-5.801L53 55.471l-8.754-1.086-5.496 6.753-6.432-18.545"
  stroke-width="2" stroke-linejoin="round" stroke-linecap="round" stroke="#2e4369"
  fill="none" data-name="stroke"></path>
  <circle stroke-width="2" stroke-linejoin="round" stroke-linecap="round"
  stroke="#2e4369" fill="none" r="12" cy="22" cx="30.998" data-name="stroke"></circle>
  <path d="M30.998 3.555L35.492 1l3.068 4.164 5.145-.507 1.111 5.049 4.903 1.634-1.039 5.061 3.82 3.487-3.012 4.203 2.071 4.737-4.461 2.614-.032 5.169-5.14.578-2.137 4.707-4.926-1.564-3.865 3.436-3.865-3.436-4.926 1.564-2.137-4.707-5.14-.578-.032-5.169-4.46-2.614 2.07-4.737L9.5 19.888l3.816-3.487-1.039-5.061 4.903-1.634 1.111-5.049 5.147.507L26.504 1l4.494 2.555z"
  stroke-width="2" stroke-linejoin="round" stroke-linecap="round" stroke="#2e4369"
  fill="none" data-name="stroke"></path>
</svg>