<svg viewBox="0 0 64 64" xmlns="http://www.w3.org/2000/svg" aria-labelledby="title"
aria-describedby="desc" role="img" xmlns:xlink="http://www.w3.org/1999/xlink">
  <title>Employee</title>
  <desc>A color styled icon from Orion Icon Library.</desc>
  <path fill="#78d1f4"
  d="M46.127 44c-4.7-.9-6.829-2-7.792-3.1L30.83 47l-7.581-5.905h-.209c-1 1.049-3.139 2.088-7.742 2.906C5 45.826 5 53.427 5 53.427V62h51.427v-8.573s0-7.457-10.3-9.427z"
  data-name="layer3"></path>
  <path fill="#e8d4d4" d="M35.869 8.855C29.06 8.855 29 15.61 18.928 15.7v1.73c-3.214.025-2.607 3.242-2.607 4.05s.506 6.23 3.116 6.23a15.659 15.659 0 0 0 4.846 7.856V38a3.968 3.968 0 0 1-1.037 3.093L30.83 47l7.506-6.1a3.737 3.737 0 0 1-.78-2.9l-.075-2.7-.007-.005A15.616 15.616 0 0 0 42 27.711c2.592-.03 3.089-5.418 3.089-6.227s.619-4-2.595-4.046v-3.095c0-.243-.021-.467-.031-.7a6.377 6.377 0 0 0-6.594-4.788z"
  data-name="layer2"></path>
  <path fill="#a06b5f" d="M30.713 2c-5.68 0-11.785 3.429-11.785 12.343V15.7C29 15.61 29.06 8.855 35.869 8.855a6.377 6.377 0 0 1 6.6 4.786C42.149 5.26 36.238 2 30.713 2z"
  data-name="layer1"></path>
  <path opacity=".15" fill="#000064" d="M16.785 48.07v11.785l12.857-9.643 9.643 7.5v-4.285L30.83 47 20 55.57V47a63.454 63.454 0 0 1 6.428-4.286c5.357 0 7.5-6.428 7.5-6.428s-1.071 1.071-3.214 0c-12.857-3.214-7.5-19.285-7.5-21.428S22.142 2 30.713 2c-5.68 0-11.785 3.429-11.785 12.343v3.091c-3.214.025-2.607 3.242-2.607 4.05s.506 6.23 3.116 6.23a15.659 15.659 0 0 0 4.846 7.856V38a3.968 3.968 0 0 1-1.037 3.093h-.209c-1 1.049-3.139 2.088-7.742 2.906C5 45.826 5 53.427 5 53.427V62h4.286c0-11.787 7.499-13.93 7.499-13.93z"
  data-name="opacity"></path>
  <path stroke-width="2" stroke-linejoin="round" stroke-linecap="round"
  stroke="#2e4369" fill="none" d="M30.722 2c-5.68 0-11.995 3.429-11.995 12.343v3.091c-2.61.025-2.507 3.242-2.507 4.05s.607 6.232 3.216 6.232a14.767 14.767 0 0 0 6.146 8.8m10.279-.002A14.757 14.757 0 0 0 42 27.711c2.592-.03 3.2-5.418 3.2-6.227s.1-4-2.486-4.046v-3.095C42.716 5.429 36.4 2 30.722 2"
  data-name="stroke"></path>
  <path stroke-width="2" stroke-linejoin="round" stroke-linecap="round"
  stroke="#2e4369" fill="none" d="M18.727 15.713c10.285 0 10.285-6.857 17.142-6.857a6.6 6.6 0 0 1 6.857 6.03M23.237 41.229l7.489 5.769-10.727 8.572V43.004m18.507-1.919l-7.78 5.913 10.701 8.572V42.758m-10.701 4.24V62"
  data-name="stroke"></path>
  <path stroke-width="2" stroke-linejoin="round" stroke-linecap="round"
  stroke="#2e4369" fill="none" d="M23.25 41.091c-1 1.049-3.349 2.091-7.951 2.908C5 45.826 5 53.427 5 53.427V62h51.427v-8.573s0-7.457-10.3-9.428c-4.7-.9-6.829-2-7.792-3.1"
  data-name="stroke"></path>
  <path stroke-width="2" stroke-linejoin="round" stroke-linecap="round"
  stroke="#2e4369" fill="none" d="M24.285 35.75V38a3.968 3.968 0 0 1-1.037 3.093L30.83 47l7.506-6.1a3.737 3.737 0 0 1-.78-2.9l-.075-2.54"
  data-name="stroke"></path>
</svg>