<svg xmlns="http://www.w3.org/2000/svg" viewBox="0 0 64 64" aria-labelledby="title"
aria-describedby="desc" role="img" xmlns:xlink="http://www.w3.org/1999/xlink">
  <title>Edit Button</title>
  <desc>A color styled icon from Orion Icon Library.</desc>
  <circle data-name="layer6"
  cx="32" cy="32" r="30" fill="#49bcff"></circle>
  <path data-name="layer5" fill="#7b8baf" d="M25.2 45.8l16.6-16.6-7-7-16.6 16.6"></path>
  <path data-name="layer4" fill="#536897" d="M25.2 45.9l16.6-16.7-3.4-3.4-16.7 16.6"></path>
  <path data-name="layer3" d="M44.9 26.1l1.9-1.9c1.9-1.9 1.4-4.6-.5-6.5s-4.6-2.4-6.5-.5l-1.9 1.9"
  fill="#f27e7c"></path>
  <path data-name="layer2" fill="#fbaa51" d="M41.8 29.2l3.1-3.1-7-7-3.1 3.1"></path>
  <path data-name="layer1" fill="#fddab3" d="M18.2 38.8l-1.5 6.4L16 48l2.8-.7 6.4-1.5"></path>
  <path data-name="opacity" d="M25.2 45.8l-6.3 1.5-2.9.7.7-2.8 1.5-6.3L7.6 49.4a30.2 30.2 0 0 0 7 7l10.6-10.6z"
  fill="#000028" opacity=".15"></path>
  <path data-name="stroke" fill="none" stroke="#2e4369" stroke-linecap="round"
  stroke-linejoin="round" stroke-width="2" d="M25.2 45.8l16.6-16.6-7-7-16.6 16.6m26.7-12.7l1.9-1.9c1.9-1.9 1.4-4.6-.5-6.5s-4.6-2.4-6.5-.5l-1.9 1.9"></path>
  <path data-name="stroke" fill="none" stroke="#2e4369" stroke-linecap="round"
  stroke-linejoin="round" stroke-width="2" d="M41.8 29.2l3.1-3.1-7-7-3.1 3.1M18.2 38.8l-1.5 6.4L16 48l2.8-.7 6.4-1.5m-7-7l7 7"></path>
  <circle data-name="stroke" cx="32" cy="32" r="30" fill="none" stroke="#2e4369"
  stroke-linecap="round" stroke-linejoin="round" stroke-width="2"></circle>
</svg>