<svg id="Layer_2" data-name="Layer 2" xmlns="http://www.w3.org/2000/svg" viewBox="0 0 32 32"><defs><style>.cls-1{fill:#8fa9d8;}.cls-2{fill:#a5d0ec;}.cls-3{fill:#000064;opacity:0.15;isolation:isolate;}.cls-4{fill:none;stroke:#2e4369;stroke-linecap:round;stroke-linejoin:round;stroke-width:2px;}</style></defs><title>support</title><path class="cls-1" d="M28.07,15.46c-.7-.1-1,.45-1.26.75L25.1,18.83a1.21,1.21,0,0,0,.3,1.66c.7.6,1.46,1.11-1.31,3.87s-3,1.76-3.62,1.06a1.21,1.21,0,0,0-1.66-.3l-2.61,1.71c-.35.25-.85.55-.75,1.26a3.62,3.62,0,0,0,3.42,2.51c2.26,0,5-1.76,7.44-4.22s4.27-5.23,4.27-7.49A3.62,3.62,0,0,0,28.07,15.46Z"/><path class="cls-2" d="M18,25.52a3.57,3.57,0,0,0,.8-.45,1.31,1.31,0,0,1,1.71.3l.15.15h2.21l.65-.55c0-.9-.9-2.71-3.47-3.47-4-1.16-4.57-2.21-4.57-3v-1a31,31,0,0,0,6-1c-1.66-1.66-3-2.16-3-9,0-5.83-3.62-6.43-7-5.83s-5,2.81-5,5.83c0,6.89-1.36,7.39-3,9a30.86,30.86,0,0,0,6,1v1c0,.8-.55,1.91-4.52,3s-3.52,4-3.52,4Z"/><path class="cls-3" d="M21.59,22.15c-.1.55-.6,1.36-2,2.71h-.05a1.26,1.26,0,0,1,1,.5l.15.15h2.21l.55-.5h.1A3.73,3.73,0,0,0,21.59,22.15ZM8,21.5c4-1.16,4.52-2.21,4.52-3-.85,0-2.76-1.31-5.53-2,1.66-1.66,2-2.16,2-9A5.74,5.74,0,0,1,14.5,1.59h.3a9.25,9.25,0,0,0-3.32.05c-3.17-.05-5,2.76-5,5.78,0,6.89-1.36,7.39-3,9a30.86,30.86,0,0,0,6,1v1c0,.8-.55,1.86-4.52,3s-3.52,4-3.52,4h3A4.42,4.42,0,0,1,8,21.5Z"/><path class="cls-4" d="M18.22,25.52H1.43A4.42,4.42,0,0,1,5,21.5c3.52-1,4.52-2.21,4.52-3v-1a30.86,30.86,0,0,1-6-1c1.66-1.66,3-2.16,3-9,0-3,1.86-5.83,5-5.83s7,0,7,5.83c0,6.89,1.36,7.39,3,9a31,31,0,0,1-6,1v1c0,.8.55,1.86,4.52,3A4.62,4.62,0,0,1,23.5,25"/><path class="cls-4" d="M28.07,15.46c-.7-.1-1,.45-1.26.75L25.1,18.83a1.21,1.21,0,0,0,.3,1.66c.7.6,1.46,1.11-1.31,3.87s-3,1.76-3.62,1.06a1.21,1.21,0,0,0-1.66-.3l-2.61,1.71c-.35.25-.85.55-.75,1.26a3.62,3.62,0,0,0,3.42,2.51c2.26,0,5-1.76,7.44-4.22s4.27-5.23,4.27-7.49A3.62,3.62,0,0,0,28.07,15.46Z"/></svg>